<svg xmlns="http://www.w3.org/2000/svg" viewBox="-25.47 0 221.14 221.14"><style>@media (prefers-color-scheme: dark) { .ink { fill: #FBF9F6; } }</style><path fill="#CC3333" d="M114.44 24.7C91.32 28.16 86.09 49.46 85.1 62.82C84.12 49.46 78.89 28.16 55.76 24.7C19.03 18.57 10.04 10.41 0 0C0.79 16.28 0 52.53 47.04 53.29C84.58 53.9 85.09 73.71 85.09 73.71C85.09 73.71 85.1 73.6 85.1 73.57C85.1 73.6 85.12 73.71 85.12 73.71C85.12 73.71 85.62 53.9 123.17 53.29C170.21 52.53 169.41 16.28 170.21 0C160.16 10.41 151.18 18.57 114.44 24.7"/><path fill="#006633" transform="translate(0 73.71)" d="M114.44 24.7C91.32 28.16 86.09 49.46 85.1 62.82C84.12 49.46 78.89 28.16 55.76 24.7C19.03 18.57 10.04 10.41 0 0C0.79 16.28 0 52.53 47.04 53.29C84.58 53.9 85.09 73.71 85.09 73.71C85.09 73.71 85.1 73.6 85.1 73.57C85.1 73.6 85.12 73.71 85.12 73.71C85.12 73.71 85.62 53.9 123.17 53.29C170.21 52.53 169.41 16.28 170.21 0C160.16 10.41 151.18 18.57 114.44 24.7"/><path class="ink" fill="#190707" transform="translate(0 147.43)" d="M114.44 24.7C91.32 28.16 86.09 49.46 85.1 62.82C84.12 49.46 78.89 28.16 55.76 24.7C19.03 18.57 10.04 10.41 0 0C0.79 16.28 0 52.53 47.04 53.29C84.58 53.9 85.09 73.71 85.09 73.71C85.09 73.71 85.1 73.6 85.1 73.57C85.1 73.6 85.12 73.71 85.12 73.71C85.12 73.71 85.62 53.9 123.17 53.29C170.21 52.53 169.41 16.28 170.21 0C160.16 10.41 151.18 18.57 114.44 24.7"/></svg>